PathFileType	4	(X/Y/Z)	..\data\2014029\dynamic\2014029_C5_05.trc
DataRate	CameraRate	NumFrames	NumMarkers	Units	OrigDataRate	OrigDataStartFrame	OrigNumFrames
100.000000	100.000000	4	52	mm	100.000000	64	172
Frame#	Time	L_IAS			L_IPS			R_IPS			R_IAS			L_FTC			L_FLE			L_FME			L_FAX			L_TTC			L_FAL			L_TAM			L_FCC			L_FM1			L_FM2			L_FM5			R_FTC			R_FLE			R_FME			R_FAX			R_TTC			R_FAL			R_TAM			R_FCC			R_FM1			R_FM2			R_FM5			CV7			TV10			SXS			SJN			L_SIA			L_SRS			L_SAA			L_SAE			L_HLE			L_HME			L_UOA			L_RSP			L_UHE			L_HM2			L_HM5			R_SIA			R_SRS			R_SAA			R_SAE			R_HLE			R_HME			R_UOA			R_RSP			R_UHE			R_HM2			R_HM5			
		X1	Y1	Z1	X2	Y2	Z2	X3	Y3	Z3	X4	Y4	Z4	X5	Y5	Z5	X6	Y6	Z6	X7	Y7	Z7	X8	Y8	Z8	X9	Y9	Z9	X10	Y10	Z10	X11	Y11	Z11	X12	Y12	Z12	X13	Y13	Z13	X14	Y14	Z14	X15	Y15	Z15	X16	Y16	Z16	X17	Y17	Z17	X18	Y18	Z18	X19	Y19	Z19	X20	Y20	Z20	X21	Y21	Z21	X22	Y22	Z22	X23	Y23	Z23	X24	Y24	Z24	X25	Y25	Z25	X26	Y26	Z26	X27	Y27	Z27	X28	Y28	Z28	X29	Y29	Z29	X30	Y30	Z30	X31	Y31	Z31	X32	Y32	Z32	X33	Y33	Z33	X34	Y34	Z34	X35	Y35	Z35	X36	Y36	Z36	X37	Y37	Z37	X38	Y38	Z38	X39	Y39	Z39	X40	Y40	Z40	X41	Y41	Z41	X42	Y42	Z42	X43	Y43	Z43	X44	Y44	Z44	X45	Y45	Z45	X46	Y46	Z46	X47	Y47	Z47	X48	Y48	Z48	X49	Y49	Z49	X50	Y50	Z50	X51	Y51	Z51	X52	Y52	Z52	

65	0.64	-409.1653442382814	1034.40869140625	117.4784088134765	-619.3532714843751	1017.439575195313	170.5773315429687	-624.9429321289064	1022.04541015625	270.8510131835938	-432.0811767578127	1038.200561523438	367.3549499511719	-468.2550354003907	937.9091796875002	43.16930389404292	-322.2579650878907	510.8048095703126	92.4051818847656	-314.5269775390626	490.3300170898439	217.2625122070313	-316.4795532226563	442.7027587890626	86.45717620849607	-253.0323791503907	455.9045410156251	151.9188842773438	-240.8941497802735	76.77965545654298	122.2048950195312	-211.7878875732423	95.91806793212892	219.4760131835938	-281.0492553710938	13.38104915618897	171.1133270263672	-64.03786468505864	41.05738830566407	198.8208770751954	-78.38230895996097	53.23009872436525	153.3225860595703	-120.9839096069336	22.55231475830078	99.56383514404298	-559.0021972656251	928.1118774414065	419.7819824218751	-631.3108520507814	504.2135314941407	376.517333984375	-631.8007812500001	487.324920654297	246.4888610839843	-682.1373291015626	453.279266357422	376.8545532226562	-616.2138671875001	417.8325805664064	319.4192504882812	-892.839294433594	149.6870422363282	312.8309936523437	-862.4162597656252	149.2722778320313	214.8053588867187	-963.3365478515627	127.1168441772461	265.8245849609374	-786.0317382812502	18.03310585021973	215.5648498535156	-781.774841308594	32.97476959228516	275.8569946289062	-820.5276489257815	18.95245742797852	330.7824401855468	-533.9996337890626	1562.2646484375	205.3394622802734	-631.0051269531251	1298.437133789063	220.1977233886718	-377.1371459960938	1265.683715820313	219.3677978515625	-409.4175415039064	1457.401000976563	208.7652435302734	-660.0231933593751	1330.507080078125	136.2845001220703	-607.7911376953126	1482.720092773438	113.7020492553711	-569.8801879882814	1471.05078125	2.804723978042533	-514.9966430664064	1468.861328125	-14.89891719818122	-636.3171997070314	1129.690673828125	-50.38319015502939	-645.4566040039064	1132.364013671875	47.07294845581048	-664.7078247070314	1130.307739257813	3.571750164031902	-636.8159179687501	837.4342041015627	-22.99500083923348	-709.5598144531251	877.304626464844	-64.55674743652354	-652.5303955078126	751.5674438476564	-12.664912223816	-743.9252319335939	796.9625244140627	-67.73207855224619	-650.0084838867189	1340.86767578125	314.4455261230469	-605.2355957031251	1488.746948242188	312.0473327636719	-556.1643676757814	1493.427124023438	417.9844055175782	-503.6922607421877	1499.455932617188	428.9266662597657	-530.2097778320315	1153.060913085938	534.284912109375	-549.5322875976564	1125.420166015625	447.4439697265626	-558.7565917968752	1123.239013671875	506.4835815429688	-314.8681030273439	956.3076782226565	516.3373413085939	-388.9494934082033	927.1792602539065	562.3477172851564	-249.9351654052736	893.8884277343752	526.8641967773439	-348.9641418457032	848.060485839844	573.3515014648439	
66	0.65	-393.740203857422	1036.861083984375	117.0435485839844	-604.0011596679689	1019.500122070313	170.4698791503906	-609.6395263671876	1023.103515625	270.6681518554688	-416.856170654297	1039.009887695313	366.7203063964844	-452.639373779297	940.6866455078127	42.52952957153315	-309.1977233886719	512.2172851562501	92.77217102050778	-303.6992797851563	491.4205627441407	217.7731018066407	-304.1797180175782	444.019500732422	86.75953674316403	-241.7073974609376	455.9939270019532	153.36572265625	-237.6236724853516	76.55389404296876	122.714111328125	-209.4977569580079	94.40660095214845	220.5482940673828	-280.5882263183594	14.26489067077637	170.643798828125	-61.97794342041019	34.95485305786134	200.4669342041016	-75.48819732666018	48.57447052001955	154.2017669677735	-119.7646713256836	19.79536628723145	99.60999298095705	-542.7442626953126	928.013122558594	419.6420898437501	-610.3993530273439	503.2309570312501	377.4369812011719	-609.3029785156251	485.3437500000001	247.5126953125	-662.3380737304689	453.7690429687501	377.6432800292969	-596.3592529296876	416.1590270996095	320.9468383789062	-882.3123779296877	157.7375640869141	313.2218322753906	-850.7946777343752	155.1715850830078	215.8253326416015	-952.5592041015627	139.6301879882813	265.0422668457031	-785.6860961914065	19.16232299804688	215.1981353759765	-781.2619628906252	33.5433578491211	275.1931152343749	-820.0084228515627	21.43337440490723	329.3907775878906	-519.7067260742189	1563.976928710938	202.9811248779297	-616.0183105468751	1299.76904296875	219.0414276123047	-362.0693054199219	1267.823852539063	218.423828125	-394.8214416503907	1459.42333984375	207.1214447021484	-644.8661499023439	1331.534545898438	134.2590637207031	-593.0677490234376	1483.920776367188	111.525276184082	-554.7454833984376	1471.8193359375	0.5978646278380669	-499.9134521484376	1469.72412109375	-16.81742668151862	-619.1953735351564	1130.083251953125	-52.43238830566415	-628.9188842773439	1132.7470703125	45.29960632324212	-647.8131713867189	1130.61376953125	1.384948611259381	-618.2092895507814	837.7434692382815	-24.98476600646981	-690.9074096679689	877.2617187500002	-66.88419342041026	-633.5433349609376	751.7448120117189	-14.80745029449471	-724.8038940429689	796.726989746094	-70.42849731445322	-635.6793212890626	1342.561645507813	312.5280151367188	-591.1122436523439	1490.7158203125	309.7405395507812	-542.3674316406251	1495.826293945313	415.8184814453126	-489.953094482422	1501.857543945313	427.0361633300782	-518.726989746094	1155.405883789063	531.7567138671875	-537.2171630859376	1128.1259765625	444.5875549316407	-547.1341552734377	1126.051513671875	503.6544189453126	-306.040985107422	955.427917480469	516.0725097656251	-381.1181640625001	927.4213867187502	561.0264892578126	-242.1247863769532	892.1342773437502	527.4915161132814	-342.4533691406251	847.6745605468752	572.3834838867189	
67	0.66	-378.4805603027344	1039.472045898438	116.5876083374023	-588.8289794921876	1021.758666992188	170.3687438964843	-594.5741577148439	1024.31494140625	270.4958801269531	-401.894012451172	1039.98828125	366.0693969726562	-437.3203125000001	943.5815429687502	41.86086273193354	-296.7563781738282	513.6394042968751	93.00227355957028	-293.3518066406251	492.5744934082032	218.1388549804688	-292.5231933593751	445.3773498535157	86.93820190429685	-231.0074615478516	456.1189880371095	154.573486328125	-234.8528594970704	76.61669921875001	123.0141525268555	-207.6071166992188	93.38558959960939	221.3438415527344	-280.1113281250001	15.21280956268311	170.0572967529297	-60.30788421630863	30.00389480590821	201.8158874511719	-72.93988037109378	44.95177841186524	154.6449127197266	-118.7925338745118	17.84157943725586	99.32044219970705	-526.5502929687501	928.011169433594	419.4685974121094	-588.0308837890626	502.0088806152345	378.5325927734375	-585.1809082031251	483.1411743164064	248.7828063964843	-640.9624633789064	454.0853271484376	378.6309509277344	-574.9771728515626	414.3170471191407	322.6514892578125	-870.1907348632815	166.212875366211	313.6584167480468	-837.537536621094	161.4390258789063	216.8762969970703	-939.922546386719	152.8890991210938	264.1354980468749	-784.4572753906252	21.11908531188965	215.0304870605468	-779.9061279296877	34.69168090820313	274.6312866210937	-818.5457153320315	24.67872047424317	328.0145874023437	-505.4544982910157	1565.886596679688	200.6769866943359	-601.2001953125001	1301.337524414063	217.9131469726562	-347.1484375000001	1270.103271484375	217.5618896484375	-380.2844238281251	1461.619262695313	205.5565643310547	-629.7230834960939	1332.780029296875	132.102310180664	-578.3382568359376	1485.3203125	109.3455352783203	-539.5422973632814	1472.858032226563	-1.584513902664251	-484.7366027832032	1470.859252929688	-18.65282630920417	-601.7083129882814	1130.616943359375	-54.54929351806649	-612.0443725585939	1133.28662109375	43.44029617309563	-630.5959472656251	1130.989379882813	-0.8842595815659344	-598.7448730468751	838.226013183594	-27.06011009216317	-671.4121093750001	877.2723388671877	-69.31836700439463	-613.4867553710939	752.0684204101564	-17.05518913269051	-704.7098388671876	796.4710083007815	-73.22339630126963	-621.4242553710939	1344.58544921875	310.7909240722656	-577.0149536132814	1492.941162109375	307.5418701171875	-528.5195312500001	1498.491943359375	413.7255554199219	-476.1598510742189	1504.506469726563	425.1745910644532	-507.2342529296877	1158.016235351563	529.1807861328125	-524.9078369140626	1131.143432617188	441.6383666992188	-535.5427856445315	1129.178100585938	500.7752380371094	-297.6716918945314	954.4437255859377	515.6707763671876	-373.7678833007814	927.735046386719	559.5574340820314	-234.9382934570314	890.0933837890627	527.9114990234376	-336.6350402832032	847.2930908203127	571.2431030273439	
68	0.67	-363.4191284179688	1042.161865234375	116.1145477294922	-573.8689575195314	1024.151611328125	170.2393646240234	-579.7898559570314	1025.635620117188	270.2964477539062	-387.238739013672	1041.104370117188	365.4159545898438	-422.3356323242189	946.5119628906252	41.16136550903316	-284.9916992187501	515.0087890625001	93.09924316406249	-283.4487304687501	493.7512817382814	218.3536987304688	-281.5874633789063	446.703826904297	87.0008087158203	-220.9663543701173	456.2274780273439	155.5139923095703	-232.5845794677735	76.88742828369142	123.1561126708984	-206.0795440673829	92.77793884277345	221.9010620117188	-279.6122741699219	16.13403129577637	169.4206085205078	-58.99542999267582	26.17905998229981	202.8992462158204	-70.73111724853518	42.29975891113282	154.7207489013672	-118.0302047729493	16.59314918518067	98.78701019287111	-510.5058593750002	928.0923461914065	419.1897888183594	-564.2788085937501	500.5860900878907	379.7622985839844	-559.5797119140626	480.8142089843751	250.2440948486328	-618.0467529296876	454.2354431152345	379.7930297851562	-552.1542358398439	412.3771362304689	324.4365844726562	-856.4190063476565	175.0363006591797	314.2058410644531	-822.6970825195315	168.0712127685547	217.9804534912109	-925.4421997070315	166.6722412109375	263.2553405761718	-781.9677734375002	24.00606727600098	215.1532592773437	-777.3303222656252	36.55453872680665	274.2713928222656	-815.736022949219	28.7786045074463	326.7840270996093	-491.2799072265626	1567.93701171875	198.4537658691406	-586.5772705078126	1303.085571289063	216.7991638183593	-332.4185791015626	1272.458374023438	216.8067016601563	-365.8435058593751	1463.926391601563	204.1005401611328	-614.6237792968751	1334.192260742188	129.8101806640624	-563.6322021484376	1486.869750976563	107.1804275512695	-524.2862548828126	1474.130249023438	-3.723277568817204	-469.4817199707032	1472.223999023438	-20.38305664062506	-583.8848876953126	1131.260009765625	-56.7307777404786	-594.8645629882814	1133.946044921875	41.48550796508783	-613.0884399414064	1131.4013671875	-3.235065698623733	-578.4496459960939	838.8618164062502	-29.20952415466316	-651.0969238281251	877.3121337890627	-71.85527801513682	-592.3773193359376	752.5311279296876	-19.38150215148933	-683.6638183593751	796.1746826171877	-76.0989990234376	-607.2806396484376	1346.891723632813	309.2513732910156	-562.9822387695314	1495.360473632813	305.4720153808594	-514.6602783203126	1501.357177734375	411.7299499511719	-462.3515014648439	1507.337158203125	423.3627014160157	-495.7147521972658	1160.82861328125	526.5957641601562	-512.6036987304689	1134.404541015625	438.6441040039063	-523.969421386719	1132.544189453125	497.8885192871094	-289.7164611816407	953.357604980469	515.1318969726564	-366.8300170898439	928.117858886719	557.9780273437501	-228.3389587402345	887.7700195312502	528.0874633789064	-331.4381103515626	846.9291992187502	569.9561767578126	
